<svg width="24" height="25" viewBox="0 0 24 25" fill="none" xmlns="http://www.w3.org/2000/svg">
<path d="M12.4693 3.52278C13.833 4.88649 13.833 7.0975 12.4693 8.46121C11.1056 9.82492 8.89455 9.82492 7.53084 8.46121C6.16713 7.0975 6.16713 4.88649 7.53084 3.52278C8.89455 2.15907 11.1056 2.15907 12.4693 3.52278" stroke="#9E8363" stroke-linecap="round" stroke-linejoin="round"/>
<path d="M14.363 13.2962C13.064 12.7772 11.54 12.4912 10 12.4912C5.952 12.4912 2 14.4582 2 17.4832V18.4832C2 19.0352 2.448 19.4832 3 19.4832H12.413" stroke="#9E8363" stroke-linecap="round" stroke-linejoin="round"/>
<path d="M17 22.5C14.239 22.5 12 20.262 12 17.5C12 14.796 14.3 12.497 17.004 12.5C19.764 12.502 22 14.74 22 17.5C22 20.261 19.762 22.5 17 22.5" stroke="#9E8363" stroke-linecap="round" stroke-linejoin="round"/>
<path d="M18.4101 16.0898L15.5901 18.9098" stroke="#9E8363" stroke-linecap="round" stroke-linejoin="round"/>
<path d="M18.4101 18.9098L15.5901 16.0898" stroke="#9E8363" stroke-linecap="round" stroke-linejoin="round"/>
</svg>
